<?xml version="1.0" encoding="utf-8"?>
<!-- Generator: Adobe Illustrator 27.7.0, SVG Export Plug-In . SVG Version: 6.00 Build 0)  -->
<svg version="1.1" id="Capa_1" xmlns="http://www.w3.org/2000/svg" xmlns:xlink="http://www.w3.org/1999/xlink" x="0px" y="0px"
	 viewBox="0 0 170 25" style="enable-background:new 0 0 170 25;" xml:space="preserve">
<style type="text/css">
	.st0{fill:#F4F3F4;}
</style>
<g>
	<g>
		<path class="st0" d="M99.92,0.69v18.78H86.83h0h-0.59c-0.33,0-0.59-0.26-0.59-0.58l0-18.2h-4.76v18.29c0,0.31,0.13,0.61,0.35,0.83
			l4.06,4.01c0.22,0.22,0.53,0.34,0.84,0.34h13.78l0,0c2.63,0,4.76-2.1,4.76-4.7V0.69H99.92z"/>
		<path class="st0" d="M23.44,14.44l-4.41-4.35l4.76-9.39h-5.32l-4.76,9.39H4.76V0.69H0v23.48h4.76v-9.39h13.08h0.59
			c0.33,0,0.59,0.26,0.59,0.59v0.59v8.22h4.76l0-8.9C23.79,14.95,23.66,14.66,23.44,14.44z"/>
		<path class="st0" d="M132.88,5.05l-4.06-4.01c-0.22-0.22-0.53-0.34-0.84-0.34h-13.78h0c-2.63,0-4.76,2.1-4.76,4.7l0,0v18.78h4.76
			v-9.39h14.27l0,9.39h4.76V5.88C133.22,5.56,133.1,5.27,132.88,5.05z M114.19,10.08v-4.7h13.08h0.59c0.33,0,0.59,0.26,0.59,0.59
			l0,4.11H114.19z"/>
		<path class="st0" d="M33.66,5.39h18.68v-4.7H33.3h0c-2.63,0-4.76,2.1-4.76,4.7l0,0v13.6c0,0.31,0.13,0.61,0.35,0.83l4.06,4.01
			c0.22,0.22,0.53,0.34,0.84,0.34h18.54v-4.7H33.9c-0.33,0-0.59-0.26-0.59-0.59V18.3v-3.52h14.28v-4.7H33.3v-4.7H33.66z"/>
		<path class="st0" d="M62.45,19.47c-0.33,0-0.59-0.26-0.59-0.59V18.3l0,0.01V0.69h-4.76v18.29c0,0.31,0.13,0.61,0.35,0.83
			l4.06,4.01c0.22,0.22,0.53,0.34,0.84,0.34h13.78v-4.7H62.45z"/>
		<path class="st0" d="M161.77,5.88c0-0.31-0.13-0.61-0.35-0.83l-4.06-4.01c-0.22-0.22-0.53-0.35-0.84-0.35h-13.78l0,0h0
			c0,0,0,0,0,0h-0.05l0,0c-2.6,0.03-4.7,2.12-4.7,4.69l0,0v18.78h4.76v-9.39h8.96l4.76,9.39h5.32l-4.76-9.39
			c2.63,0,4.76-2.1,4.76-4.69l0,0h0L161.77,5.88z M155.37,10.08h-12.63v-3.3V5.39h13.68c0.33,0,0.59,0.26,0.59,0.59v0.59v3.52
			H155.37z"/>
	</g>
	<g>
		<path class="st0" d="M167.42,19.29c1.48,0,2.58,1.08,2.58,2.51c0,1.42-1.1,2.51-2.58,2.51c-1.48,0-2.58-1.09-2.58-2.51
			C164.85,20.37,165.95,19.29,167.42,19.29z M167.42,23.83c1.17,0,2.03-0.85,2.03-2.03c0-1.19-0.85-2.03-2.03-2.03
			c-1.18,0-2.03,0.85-2.03,2.03C165.4,22.98,166.25,23.83,167.42,23.83z M167.46,20.54c0.45,0,0.77,0.23,0.95,0.46
			c0.11,0.14,0.19,0.28,0.25,0.45h-0.58c-0.04-0.07-0.09-0.14-0.14-0.2c-0.1-0.1-0.25-0.2-0.47-0.2c-0.38,0-0.69,0.31-0.69,0.75
			c0,0.44,0.3,0.75,0.69,0.75c0.24,0,0.38-0.1,0.49-0.2c0.05-0.06,0.1-0.13,0.13-0.2h0.58c-0.06,0.17-0.14,0.33-0.25,0.46
			c-0.19,0.24-0.48,0.45-0.95,0.45c-0.69,0-1.24-0.54-1.24-1.25C166.22,21.08,166.77,20.54,167.46,20.54z"/>
	</g>
</g>
</svg>
