<?xml version="1.0" encoding="utf-8"?>
<!-- Generator: Adobe Illustrator 27.7.0, SVG Export Plug-In . SVG Version: 6.00 Build 0)  -->
<svg version="1.1" id="Capa_1" xmlns="http://www.w3.org/2000/svg" xmlns:xlink="http://www.w3.org/1999/xlink" x="0px" y="0px"
	 viewBox="0 0 95.89 95.89" style="enable-background:new 0 0 95.89 95.89;" xml:space="preserve">
<style type="text/css">
	.st0{fill:#224533;}
	.st1{fill:none;stroke:#FFFFFF;stroke-width:2;stroke-miterlimit:10;}
</style>
<path class="st0" d="M85.13,0H10.76C4.82,0,0,4.82,0,10.76v74.36c0,5.94,4.82,10.76,10.76,10.76h74.36
	c5.94,0,10.76-4.82,10.76-10.76V10.76C95.89,4.82,91.07,0,85.13,0z"/>
<g>
	<circle class="st1" cx="33.27" cy="32.5" r="5"/>
	<path class="st1" d="M73.37,64.61L50.68,41.92c2.2-5.33,1.13-11.7-3.2-16.03c-5.75-5.75-15.07-5.75-20.82,0s-5.75,15.07,0,20.82
		c4.43,4.43,10.98,5.44,16.38,3.05l4.85,4.85l5.52-0.63l-0.81,5.33l2.93,2.93l3.78-0.22l-0.37,3.63l3.74-0.19l-0.33,3.59l1.11,1.11
		l8.41,0.92l1.51-1.51L73.37,64.61z"/>
</g>
</svg>
