<?xml version="1.0" encoding="utf-8"?>
<!-- Generator: Adobe Illustrator 27.7.0, SVG Export Plug-In . SVG Version: 6.00 Build 0)  -->
<svg version="1.1" id="Capa_1" xmlns="http://www.w3.org/2000/svg" xmlns:xlink="http://www.w3.org/1999/xlink" x="0px" y="0px"
	 viewBox="0 0 95.89 95.89" style="enable-background:new 0 0 95.89 95.89;" xml:space="preserve">
<style type="text/css">
	.st0{fill:#224533;}
	.st1{fill:none;stroke:#FFFFFF;stroke-width:2;stroke-miterlimit:10;}
</style>
<path class="st0" d="M84.79,0H11.1C4.97,0,0,4.97,0,11.1v73.7c0,6.13,4.97,11.1,11.1,11.1h73.7c6.13,0,11.1-4.97,11.1-11.1V11.1
	C95.89,4.97,90.92,0,84.79,0z"/>
<g>
	<rect x="28.92" y="23.09" class="st1" width="38.13" height="7.41"/>
	<line class="st1" x1="47.99" y1="36.63" x2="47.99" y2="30.5"/>
	<polygon class="st1" points="52.76,36.63 43.21,36.63 38.43,44.9 43.21,53.18 52.76,53.18 57.54,44.9 	"/>
	<path class="st1" d="M39.41,67.82c0,4.74,3.84,8.58,8.58,8.58s8.58-3.84,8.58-8.58s-3.84-8.58-8.58-8.58v-5.52"/>
</g>
</svg>
