<?xml version="1.0" encoding="utf-8"?>
<!-- Generator: Adobe Illustrator 27.7.0, SVG Export Plug-In . SVG Version: 6.00 Build 0)  -->
<svg version="1.1" id="Capa_1" xmlns="http://www.w3.org/2000/svg" xmlns:xlink="http://www.w3.org/1999/xlink" x="0px" y="0px"
	 viewBox="0 0 95.89 95.89" style="enable-background:new 0 0 95.89 95.89;" xml:space="preserve">
<style type="text/css">
	.st0{fill:#224533;}
	.st1{fill:none;stroke:#FFFFFF;stroke-width:2;stroke-miterlimit:10;}
</style>
<g>
	<path class="st0" d="M84.79,0H11.1C4.97,0,0,4.97,0,11.1v73.7c0,6.13,4.97,11.1,11.1,11.1h73.7c6.13,0,11.1-4.97,11.1-11.1V11.1
		C95.89,4.97,90.92,0,84.79,0z"/>
	<g>
		<polyline class="st1" points="57.43,47.69 73.19,63.45 63.06,73.58 47.55,58.07 		"/>
		<polyline class="st1" points="38.27,48.79 21.91,32.43 32.04,22.31 48.35,38.61 		"/>
		<g>
			<line class="st1" x1="34.04" y1="33.43" x2="38.6" y2="28.87"/>
			<line class="st1" x1="39.22" y1="38.61" x2="43.78" y2="34.05"/>
		</g>
		<g>
			<line class="st1" x1="62.06" y1="61.46" x2="66.63" y2="56.89"/>
			<line class="st1" x1="56.88" y1="56.28" x2="61.45" y2="51.71"/>
		</g>
		
			<rect x="43.57" y="18.56" transform="matrix(0.7071 0.7071 -0.7071 0.7071 47.5838 -21.4852)" class="st1" width="12.3" height="56.28"/>
		<polyline class="st1" points="24.71,62.48 23.39,73.03 33.94,71.71 		"/>
		<line class="st1" x1="68.79" y1="36.33" x2="60.09" y2="27.63"/>
	</g>
</g>
</svg>
